G04 #@! TF.GenerationSoftware,KiCad,Pcbnew,5.1.0-060a0da~80~ubuntu16.04.1*
G04 #@! TF.CreationDate,2019-04-05T15:08:29+02:00*
G04 #@! TF.ProjectId,raspiECCv1,72617370-6945-4434-9376-312e6b696361,rev?*
G04 #@! TF.SameCoordinates,Original*
G04 #@! TF.FileFunction,Paste,Top*
G04 #@! TF.FilePolarity,Positive*
%FSLAX46Y46*%
G04 Gerber Fmt 4.6, Leading zero omitted, Abs format (unit mm)*
G04 Created by KiCad (PCBNEW 5.1.0-060a0da~80~ubuntu16.04.1) date 2019-04-05 15:08:29*
%MOMM*%
%LPD*%
G04 APERTURE LIST*
%ADD10R,0.600000X1.550000*%
%ADD11C,0.100000*%
%ADD12C,0.975000*%
G04 APERTURE END LIST*
D10*
X147447000Y-94836000D03*
X148717000Y-94836000D03*
X149987000Y-94836000D03*
X151257000Y-94836000D03*
X151257000Y-100236000D03*
X149987000Y-100236000D03*
X148717000Y-100236000D03*
X147447000Y-100236000D03*
D11*
G36*
X154150142Y-96209174D02*
G01*
X154173803Y-96212684D01*
X154197007Y-96218496D01*
X154219529Y-96226554D01*
X154241153Y-96236782D01*
X154261670Y-96249079D01*
X154280883Y-96263329D01*
X154298607Y-96279393D01*
X154314671Y-96297117D01*
X154328921Y-96316330D01*
X154341218Y-96336847D01*
X154351446Y-96358471D01*
X154359504Y-96380993D01*
X154365316Y-96404197D01*
X154368826Y-96427858D01*
X154370000Y-96451750D01*
X154370000Y-96939250D01*
X154368826Y-96963142D01*
X154365316Y-96986803D01*
X154359504Y-97010007D01*
X154351446Y-97032529D01*
X154341218Y-97054153D01*
X154328921Y-97074670D01*
X154314671Y-97093883D01*
X154298607Y-97111607D01*
X154280883Y-97127671D01*
X154261670Y-97141921D01*
X154241153Y-97154218D01*
X154219529Y-97164446D01*
X154197007Y-97172504D01*
X154173803Y-97178316D01*
X154150142Y-97181826D01*
X154126250Y-97183000D01*
X153213750Y-97183000D01*
X153189858Y-97181826D01*
X153166197Y-97178316D01*
X153142993Y-97172504D01*
X153120471Y-97164446D01*
X153098847Y-97154218D01*
X153078330Y-97141921D01*
X153059117Y-97127671D01*
X153041393Y-97111607D01*
X153025329Y-97093883D01*
X153011079Y-97074670D01*
X152998782Y-97054153D01*
X152988554Y-97032529D01*
X152980496Y-97010007D01*
X152974684Y-96986803D01*
X152971174Y-96963142D01*
X152970000Y-96939250D01*
X152970000Y-96451750D01*
X152971174Y-96427858D01*
X152974684Y-96404197D01*
X152980496Y-96380993D01*
X152988554Y-96358471D01*
X152998782Y-96336847D01*
X153011079Y-96316330D01*
X153025329Y-96297117D01*
X153041393Y-96279393D01*
X153059117Y-96263329D01*
X153078330Y-96249079D01*
X153098847Y-96236782D01*
X153120471Y-96226554D01*
X153142993Y-96218496D01*
X153166197Y-96212684D01*
X153189858Y-96209174D01*
X153213750Y-96208000D01*
X154126250Y-96208000D01*
X154150142Y-96209174D01*
X154150142Y-96209174D01*
G37*
D12*
X153670000Y-96695500D03*
D11*
G36*
X154150142Y-94334174D02*
G01*
X154173803Y-94337684D01*
X154197007Y-94343496D01*
X154219529Y-94351554D01*
X154241153Y-94361782D01*
X154261670Y-94374079D01*
X154280883Y-94388329D01*
X154298607Y-94404393D01*
X154314671Y-94422117D01*
X154328921Y-94441330D01*
X154341218Y-94461847D01*
X154351446Y-94483471D01*
X154359504Y-94505993D01*
X154365316Y-94529197D01*
X154368826Y-94552858D01*
X154370000Y-94576750D01*
X154370000Y-95064250D01*
X154368826Y-95088142D01*
X154365316Y-95111803D01*
X154359504Y-95135007D01*
X154351446Y-95157529D01*
X154341218Y-95179153D01*
X154328921Y-95199670D01*
X154314671Y-95218883D01*
X154298607Y-95236607D01*
X154280883Y-95252671D01*
X154261670Y-95266921D01*
X154241153Y-95279218D01*
X154219529Y-95289446D01*
X154197007Y-95297504D01*
X154173803Y-95303316D01*
X154150142Y-95306826D01*
X154126250Y-95308000D01*
X153213750Y-95308000D01*
X153189858Y-95306826D01*
X153166197Y-95303316D01*
X153142993Y-95297504D01*
X153120471Y-95289446D01*
X153098847Y-95279218D01*
X153078330Y-95266921D01*
X153059117Y-95252671D01*
X153041393Y-95236607D01*
X153025329Y-95218883D01*
X153011079Y-95199670D01*
X152998782Y-95179153D01*
X152988554Y-95157529D01*
X152980496Y-95135007D01*
X152974684Y-95111803D01*
X152971174Y-95088142D01*
X152970000Y-95064250D01*
X152970000Y-94576750D01*
X152971174Y-94552858D01*
X152974684Y-94529197D01*
X152980496Y-94505993D01*
X152988554Y-94483471D01*
X152998782Y-94461847D01*
X153011079Y-94441330D01*
X153025329Y-94422117D01*
X153041393Y-94404393D01*
X153059117Y-94388329D01*
X153078330Y-94374079D01*
X153098847Y-94361782D01*
X153120471Y-94351554D01*
X153142993Y-94343496D01*
X153166197Y-94337684D01*
X153189858Y-94334174D01*
X153213750Y-94333000D01*
X154126250Y-94333000D01*
X154150142Y-94334174D01*
X154150142Y-94334174D01*
G37*
D12*
X153670000Y-94820500D03*
D11*
G36*
X154150142Y-97968674D02*
G01*
X154173803Y-97972184D01*
X154197007Y-97977996D01*
X154219529Y-97986054D01*
X154241153Y-97996282D01*
X154261670Y-98008579D01*
X154280883Y-98022829D01*
X154298607Y-98038893D01*
X154314671Y-98056617D01*
X154328921Y-98075830D01*
X154341218Y-98096347D01*
X154351446Y-98117971D01*
X154359504Y-98140493D01*
X154365316Y-98163697D01*
X154368826Y-98187358D01*
X154370000Y-98211250D01*
X154370000Y-98698750D01*
X154368826Y-98722642D01*
X154365316Y-98746303D01*
X154359504Y-98769507D01*
X154351446Y-98792029D01*
X154341218Y-98813653D01*
X154328921Y-98834170D01*
X154314671Y-98853383D01*
X154298607Y-98871107D01*
X154280883Y-98887171D01*
X154261670Y-98901421D01*
X154241153Y-98913718D01*
X154219529Y-98923946D01*
X154197007Y-98932004D01*
X154173803Y-98937816D01*
X154150142Y-98941326D01*
X154126250Y-98942500D01*
X153213750Y-98942500D01*
X153189858Y-98941326D01*
X153166197Y-98937816D01*
X153142993Y-98932004D01*
X153120471Y-98923946D01*
X153098847Y-98913718D01*
X153078330Y-98901421D01*
X153059117Y-98887171D01*
X153041393Y-98871107D01*
X153025329Y-98853383D01*
X153011079Y-98834170D01*
X152998782Y-98813653D01*
X152988554Y-98792029D01*
X152980496Y-98769507D01*
X152974684Y-98746303D01*
X152971174Y-98722642D01*
X152970000Y-98698750D01*
X152970000Y-98211250D01*
X152971174Y-98187358D01*
X152974684Y-98163697D01*
X152980496Y-98140493D01*
X152988554Y-98117971D01*
X152998782Y-98096347D01*
X153011079Y-98075830D01*
X153025329Y-98056617D01*
X153041393Y-98038893D01*
X153059117Y-98022829D01*
X153078330Y-98008579D01*
X153098847Y-97996282D01*
X153120471Y-97986054D01*
X153142993Y-97977996D01*
X153166197Y-97972184D01*
X153189858Y-97968674D01*
X153213750Y-97967500D01*
X154126250Y-97967500D01*
X154150142Y-97968674D01*
X154150142Y-97968674D01*
G37*
D12*
X153670000Y-98455000D03*
D11*
G36*
X154150142Y-99843674D02*
G01*
X154173803Y-99847184D01*
X154197007Y-99852996D01*
X154219529Y-99861054D01*
X154241153Y-99871282D01*
X154261670Y-99883579D01*
X154280883Y-99897829D01*
X154298607Y-99913893D01*
X154314671Y-99931617D01*
X154328921Y-99950830D01*
X154341218Y-99971347D01*
X154351446Y-99992971D01*
X154359504Y-100015493D01*
X154365316Y-100038697D01*
X154368826Y-100062358D01*
X154370000Y-100086250D01*
X154370000Y-100573750D01*
X154368826Y-100597642D01*
X154365316Y-100621303D01*
X154359504Y-100644507D01*
X154351446Y-100667029D01*
X154341218Y-100688653D01*
X154328921Y-100709170D01*
X154314671Y-100728383D01*
X154298607Y-100746107D01*
X154280883Y-100762171D01*
X154261670Y-100776421D01*
X154241153Y-100788718D01*
X154219529Y-100798946D01*
X154197007Y-100807004D01*
X154173803Y-100812816D01*
X154150142Y-100816326D01*
X154126250Y-100817500D01*
X153213750Y-100817500D01*
X153189858Y-100816326D01*
X153166197Y-100812816D01*
X153142993Y-100807004D01*
X153120471Y-100798946D01*
X153098847Y-100788718D01*
X153078330Y-100776421D01*
X153059117Y-100762171D01*
X153041393Y-100746107D01*
X153025329Y-100728383D01*
X153011079Y-100709170D01*
X152998782Y-100688653D01*
X152988554Y-100667029D01*
X152980496Y-100644507D01*
X152974684Y-100621303D01*
X152971174Y-100597642D01*
X152970000Y-100573750D01*
X152970000Y-100086250D01*
X152971174Y-100062358D01*
X152974684Y-100038697D01*
X152980496Y-100015493D01*
X152988554Y-99992971D01*
X152998782Y-99971347D01*
X153011079Y-99950830D01*
X153025329Y-99931617D01*
X153041393Y-99913893D01*
X153059117Y-99897829D01*
X153078330Y-99883579D01*
X153098847Y-99871282D01*
X153120471Y-99861054D01*
X153142993Y-99852996D01*
X153166197Y-99847184D01*
X153189858Y-99843674D01*
X153213750Y-99842500D01*
X154126250Y-99842500D01*
X154150142Y-99843674D01*
X154150142Y-99843674D01*
G37*
D12*
X153670000Y-100330000D03*
D11*
G36*
X146276142Y-94989974D02*
G01*
X146299803Y-94993484D01*
X146323007Y-94999296D01*
X146345529Y-95007354D01*
X146367153Y-95017582D01*
X146387670Y-95029879D01*
X146406883Y-95044129D01*
X146424607Y-95060193D01*
X146440671Y-95077917D01*
X146454921Y-95097130D01*
X146467218Y-95117647D01*
X146477446Y-95139271D01*
X146485504Y-95161793D01*
X146491316Y-95184997D01*
X146494826Y-95208658D01*
X146496000Y-95232550D01*
X146496000Y-95720050D01*
X146494826Y-95743942D01*
X146491316Y-95767603D01*
X146485504Y-95790807D01*
X146477446Y-95813329D01*
X146467218Y-95834953D01*
X146454921Y-95855470D01*
X146440671Y-95874683D01*
X146424607Y-95892407D01*
X146406883Y-95908471D01*
X146387670Y-95922721D01*
X146367153Y-95935018D01*
X146345529Y-95945246D01*
X146323007Y-95953304D01*
X146299803Y-95959116D01*
X146276142Y-95962626D01*
X146252250Y-95963800D01*
X145339750Y-95963800D01*
X145315858Y-95962626D01*
X145292197Y-95959116D01*
X145268993Y-95953304D01*
X145246471Y-95945246D01*
X145224847Y-95935018D01*
X145204330Y-95922721D01*
X145185117Y-95908471D01*
X145167393Y-95892407D01*
X145151329Y-95874683D01*
X145137079Y-95855470D01*
X145124782Y-95834953D01*
X145114554Y-95813329D01*
X145106496Y-95790807D01*
X145100684Y-95767603D01*
X145097174Y-95743942D01*
X145096000Y-95720050D01*
X145096000Y-95232550D01*
X145097174Y-95208658D01*
X145100684Y-95184997D01*
X145106496Y-95161793D01*
X145114554Y-95139271D01*
X145124782Y-95117647D01*
X145137079Y-95097130D01*
X145151329Y-95077917D01*
X145167393Y-95060193D01*
X145185117Y-95044129D01*
X145204330Y-95029879D01*
X145224847Y-95017582D01*
X145246471Y-95007354D01*
X145268993Y-94999296D01*
X145292197Y-94993484D01*
X145315858Y-94989974D01*
X145339750Y-94988800D01*
X146252250Y-94988800D01*
X146276142Y-94989974D01*
X146276142Y-94989974D01*
G37*
D12*
X145796000Y-95476300D03*
D11*
G36*
X146276142Y-93114974D02*
G01*
X146299803Y-93118484D01*
X146323007Y-93124296D01*
X146345529Y-93132354D01*
X146367153Y-93142582D01*
X146387670Y-93154879D01*
X146406883Y-93169129D01*
X146424607Y-93185193D01*
X146440671Y-93202917D01*
X146454921Y-93222130D01*
X146467218Y-93242647D01*
X146477446Y-93264271D01*
X146485504Y-93286793D01*
X146491316Y-93309997D01*
X146494826Y-93333658D01*
X146496000Y-93357550D01*
X146496000Y-93845050D01*
X146494826Y-93868942D01*
X146491316Y-93892603D01*
X146485504Y-93915807D01*
X146477446Y-93938329D01*
X146467218Y-93959953D01*
X146454921Y-93980470D01*
X146440671Y-93999683D01*
X146424607Y-94017407D01*
X146406883Y-94033471D01*
X146387670Y-94047721D01*
X146367153Y-94060018D01*
X146345529Y-94070246D01*
X146323007Y-94078304D01*
X146299803Y-94084116D01*
X146276142Y-94087626D01*
X146252250Y-94088800D01*
X145339750Y-94088800D01*
X145315858Y-94087626D01*
X145292197Y-94084116D01*
X145268993Y-94078304D01*
X145246471Y-94070246D01*
X145224847Y-94060018D01*
X145204330Y-94047721D01*
X145185117Y-94033471D01*
X145167393Y-94017407D01*
X145151329Y-93999683D01*
X145137079Y-93980470D01*
X145124782Y-93959953D01*
X145114554Y-93938329D01*
X145106496Y-93915807D01*
X145100684Y-93892603D01*
X145097174Y-93868942D01*
X145096000Y-93845050D01*
X145096000Y-93357550D01*
X145097174Y-93333658D01*
X145100684Y-93309997D01*
X145106496Y-93286793D01*
X145114554Y-93264271D01*
X145124782Y-93242647D01*
X145137079Y-93222130D01*
X145151329Y-93202917D01*
X145167393Y-93185193D01*
X145185117Y-93169129D01*
X145204330Y-93154879D01*
X145224847Y-93142582D01*
X145246471Y-93132354D01*
X145268993Y-93124296D01*
X145292197Y-93118484D01*
X145315858Y-93114974D01*
X145339750Y-93113800D01*
X146252250Y-93113800D01*
X146276142Y-93114974D01*
X146276142Y-93114974D01*
G37*
D12*
X145796000Y-93601300D03*
M02*
