G04 #@! TF.GenerationSoftware,KiCad,Pcbnew,5.1.0-060a0da~80~ubuntu16.04.1*
G04 #@! TF.CreationDate,2019-04-05T15:08:29+02:00*
G04 #@! TF.ProjectId,raspiECCv1,72617370-6945-4434-9376-312e6b696361,rev?*
G04 #@! TF.SameCoordinates,Original*
G04 #@! TF.FileFunction,Soldermask,Bot*
G04 #@! TF.FilePolarity,Negative*
%FSLAX46Y46*%
G04 Gerber Fmt 4.6, Leading zero omitted, Abs format (unit mm)*
G04 Created by KiCad (PCBNEW 5.1.0-060a0da~80~ubuntu16.04.1) date 2019-04-05 15:08:29*
%MOMM*%
%LPD*%
G04 APERTURE LIST*
%ADD10C,0.100000*%
G04 APERTURE END LIST*
D10*
G36*
X159368443Y-98720520D02*
G01*
X159434627Y-98727038D01*
X159604466Y-98778558D01*
X159760991Y-98862223D01*
X159796729Y-98891553D01*
X159898186Y-98974815D01*
X159981448Y-99076272D01*
X160010778Y-99112010D01*
X160094443Y-99268535D01*
X160145963Y-99438374D01*
X160163359Y-99615001D01*
X160145963Y-99791628D01*
X160094443Y-99961467D01*
X160010778Y-100117992D01*
X159981448Y-100153730D01*
X159898186Y-100255187D01*
X159796729Y-100338449D01*
X159760991Y-100367779D01*
X159604466Y-100451444D01*
X159434627Y-100502964D01*
X159368442Y-100509483D01*
X159302260Y-100516001D01*
X159213740Y-100516001D01*
X159147557Y-100509482D01*
X159081373Y-100502964D01*
X158911534Y-100451444D01*
X158755009Y-100367779D01*
X158719271Y-100338449D01*
X158617814Y-100255187D01*
X158534552Y-100153730D01*
X158505222Y-100117992D01*
X158421557Y-99961467D01*
X158370037Y-99791628D01*
X158352641Y-99615001D01*
X158370037Y-99438374D01*
X158421557Y-99268535D01*
X158505222Y-99112010D01*
X158534552Y-99076272D01*
X158617814Y-98974815D01*
X158719271Y-98891553D01*
X158755009Y-98862223D01*
X158911534Y-98778558D01*
X159081373Y-98727038D01*
X159147558Y-98720519D01*
X159213740Y-98714001D01*
X159302260Y-98714001D01*
X159368443Y-98720520D01*
X159368443Y-98720520D01*
G37*
G36*
X156828443Y-98720520D02*
G01*
X156894627Y-98727038D01*
X157064466Y-98778558D01*
X157220991Y-98862223D01*
X157256729Y-98891553D01*
X157358186Y-98974815D01*
X157441448Y-99076272D01*
X157470778Y-99112010D01*
X157554443Y-99268535D01*
X157605963Y-99438374D01*
X157623359Y-99615001D01*
X157605963Y-99791628D01*
X157554443Y-99961467D01*
X157470778Y-100117992D01*
X157441448Y-100153730D01*
X157358186Y-100255187D01*
X157256729Y-100338449D01*
X157220991Y-100367779D01*
X157064466Y-100451444D01*
X156894627Y-100502964D01*
X156828442Y-100509483D01*
X156762260Y-100516001D01*
X156673740Y-100516001D01*
X156607557Y-100509482D01*
X156541373Y-100502964D01*
X156371534Y-100451444D01*
X156215009Y-100367779D01*
X156179271Y-100338449D01*
X156077814Y-100255187D01*
X155994552Y-100153730D01*
X155965222Y-100117992D01*
X155881557Y-99961467D01*
X155830037Y-99791628D01*
X155812641Y-99615001D01*
X155830037Y-99438374D01*
X155881557Y-99268535D01*
X155965222Y-99112010D01*
X155994552Y-99076272D01*
X156077814Y-98974815D01*
X156179271Y-98891553D01*
X156215009Y-98862223D01*
X156371534Y-98778558D01*
X156541373Y-98727038D01*
X156607558Y-98720519D01*
X156673740Y-98714001D01*
X156762260Y-98714001D01*
X156828443Y-98720520D01*
X156828443Y-98720520D01*
G37*
G36*
X159368442Y-96180519D02*
G01*
X159434627Y-96187038D01*
X159604466Y-96238558D01*
X159760991Y-96322223D01*
X159796729Y-96351553D01*
X159898186Y-96434815D01*
X159981448Y-96536272D01*
X160010778Y-96572010D01*
X160094443Y-96728535D01*
X160145963Y-96898374D01*
X160163359Y-97075001D01*
X160145963Y-97251628D01*
X160094443Y-97421467D01*
X160010778Y-97577992D01*
X159981448Y-97613730D01*
X159898186Y-97715187D01*
X159796729Y-97798449D01*
X159760991Y-97827779D01*
X159604466Y-97911444D01*
X159434627Y-97962964D01*
X159368443Y-97969482D01*
X159302260Y-97976001D01*
X159213740Y-97976001D01*
X159147558Y-97969483D01*
X159081373Y-97962964D01*
X158911534Y-97911444D01*
X158755009Y-97827779D01*
X158719271Y-97798449D01*
X158617814Y-97715187D01*
X158534552Y-97613730D01*
X158505222Y-97577992D01*
X158421557Y-97421467D01*
X158370037Y-97251628D01*
X158352641Y-97075001D01*
X158370037Y-96898374D01*
X158421557Y-96728535D01*
X158505222Y-96572010D01*
X158534552Y-96536272D01*
X158617814Y-96434815D01*
X158719271Y-96351553D01*
X158755009Y-96322223D01*
X158911534Y-96238558D01*
X159081373Y-96187038D01*
X159147557Y-96180520D01*
X159213740Y-96174001D01*
X159302260Y-96174001D01*
X159368442Y-96180519D01*
X159368442Y-96180519D01*
G37*
G36*
X156828442Y-96180519D02*
G01*
X156894627Y-96187038D01*
X157064466Y-96238558D01*
X157220991Y-96322223D01*
X157256729Y-96351553D01*
X157358186Y-96434815D01*
X157441448Y-96536272D01*
X157470778Y-96572010D01*
X157554443Y-96728535D01*
X157605963Y-96898374D01*
X157623359Y-97075001D01*
X157605963Y-97251628D01*
X157554443Y-97421467D01*
X157470778Y-97577992D01*
X157441448Y-97613730D01*
X157358186Y-97715187D01*
X157256729Y-97798449D01*
X157220991Y-97827779D01*
X157064466Y-97911444D01*
X156894627Y-97962964D01*
X156828443Y-97969482D01*
X156762260Y-97976001D01*
X156673740Y-97976001D01*
X156607558Y-97969483D01*
X156541373Y-97962964D01*
X156371534Y-97911444D01*
X156215009Y-97827779D01*
X156179271Y-97798449D01*
X156077814Y-97715187D01*
X155994552Y-97613730D01*
X155965222Y-97577992D01*
X155881557Y-97421467D01*
X155830037Y-97251628D01*
X155812641Y-97075001D01*
X155830037Y-96898374D01*
X155881557Y-96728535D01*
X155965222Y-96572010D01*
X155994552Y-96536272D01*
X156077814Y-96434815D01*
X156179271Y-96351553D01*
X156215009Y-96322223D01*
X156371534Y-96238558D01*
X156541373Y-96187038D01*
X156607557Y-96180520D01*
X156673740Y-96174001D01*
X156762260Y-96174001D01*
X156828442Y-96180519D01*
X156828442Y-96180519D01*
G37*
G36*
X159368443Y-93640520D02*
G01*
X159434627Y-93647038D01*
X159604466Y-93698558D01*
X159760991Y-93782223D01*
X159796729Y-93811553D01*
X159898186Y-93894815D01*
X159981448Y-93996272D01*
X160010778Y-94032010D01*
X160094443Y-94188535D01*
X160145963Y-94358374D01*
X160163359Y-94535001D01*
X160145963Y-94711628D01*
X160094443Y-94881467D01*
X160010778Y-95037992D01*
X159981448Y-95073730D01*
X159898186Y-95175187D01*
X159796729Y-95258449D01*
X159760991Y-95287779D01*
X159604466Y-95371444D01*
X159434627Y-95422964D01*
X159368442Y-95429483D01*
X159302260Y-95436001D01*
X159213740Y-95436001D01*
X159147558Y-95429483D01*
X159081373Y-95422964D01*
X158911534Y-95371444D01*
X158755009Y-95287779D01*
X158719271Y-95258449D01*
X158617814Y-95175187D01*
X158534552Y-95073730D01*
X158505222Y-95037992D01*
X158421557Y-94881467D01*
X158370037Y-94711628D01*
X158352641Y-94535001D01*
X158370037Y-94358374D01*
X158421557Y-94188535D01*
X158505222Y-94032010D01*
X158534552Y-93996272D01*
X158617814Y-93894815D01*
X158719271Y-93811553D01*
X158755009Y-93782223D01*
X158911534Y-93698558D01*
X159081373Y-93647038D01*
X159147558Y-93640519D01*
X159213740Y-93634001D01*
X159302260Y-93634001D01*
X159368443Y-93640520D01*
X159368443Y-93640520D01*
G37*
G36*
X157619000Y-95436001D02*
G01*
X155817000Y-95436001D01*
X155817000Y-93634001D01*
X157619000Y-93634001D01*
X157619000Y-95436001D01*
X157619000Y-95436001D01*
G37*
M02*
