G04 #@! TF.GenerationSoftware,KiCad,Pcbnew,5.1.0-060a0da~80~ubuntu16.04.1*
G04 #@! TF.CreationDate,2019-04-05T15:08:29+02:00*
G04 #@! TF.ProjectId,raspiECCv1,72617370-6945-4434-9376-312e6b696361,rev?*
G04 #@! TF.SameCoordinates,Original*
G04 #@! TF.FileFunction,Copper,L2,Bot*
G04 #@! TF.FilePolarity,Positive*
%FSLAX46Y46*%
G04 Gerber Fmt 4.6, Leading zero omitted, Abs format (unit mm)*
G04 Created by KiCad (PCBNEW 5.1.0-060a0da~80~ubuntu16.04.1) date 2019-04-05 15:08:29*
%MOMM*%
%LPD*%
G04 APERTURE LIST*
%ADD10O,1.700000X1.700000*%
%ADD11R,1.700000X1.700000*%
%ADD12C,0.800000*%
%ADD13C,0.250000*%
%ADD14C,0.152400*%
G04 APERTURE END LIST*
D10*
X159258000Y-99615001D03*
X156718000Y-99615001D03*
X159258000Y-97075001D03*
X156718000Y-97075001D03*
X159258000Y-94535001D03*
D11*
X156718000Y-94535001D03*
D12*
X147066000Y-98552000D03*
X147066000Y-96774000D03*
X152273000Y-94996000D03*
X155194000Y-95758000D03*
X154432000Y-93472000D03*
X149352000Y-96647000D03*
X155194000Y-97942400D03*
X160578800Y-100888800D03*
X160578800Y-98298000D03*
X160578800Y-95808800D03*
X160578800Y-93370400D03*
X155194000Y-100888800D03*
X152247600Y-100888800D03*
X149352000Y-98755200D03*
D13*
X147066000Y-98552000D02*
X147066000Y-96774000D01*
X154948622Y-93988622D02*
X154432000Y-93472000D01*
X154948622Y-95652355D02*
X154948622Y-93988622D01*
X152929355Y-95652355D02*
X152273000Y-94996000D01*
X154948622Y-95652355D02*
X152929355Y-95652355D01*
X149225000Y-96774000D02*
X149352000Y-96647000D01*
X147066000Y-96774000D02*
X149225000Y-96774000D01*
X155448000Y-100260252D02*
X155448000Y-100838000D01*
X154948622Y-95652355D02*
X154948622Y-95749378D01*
X154940000Y-95758000D02*
X154940000Y-97663000D01*
X155448000Y-98171000D02*
X155448000Y-100260252D01*
X154948622Y-95749378D02*
X154940000Y-95758000D01*
X154940000Y-97663000D02*
X155194000Y-97917000D01*
X155194000Y-97917000D02*
X155448000Y-98171000D01*
X155448000Y-100838000D02*
X155448000Y-100838000D01*
X155498800Y-100888800D02*
X155448000Y-100838000D01*
X160578800Y-100888800D02*
X155498800Y-100888800D01*
X160578800Y-100888800D02*
X160578800Y-98298000D01*
X160578800Y-98298000D02*
X160578800Y-95808800D01*
X160578800Y-95808800D02*
X160578800Y-93370400D01*
X154831999Y-93072001D02*
X154432000Y-93472000D01*
X159714716Y-93072001D02*
X154831999Y-93072001D01*
X160013115Y-93370400D02*
X159714716Y-93072001D01*
X160578800Y-93370400D02*
X160013115Y-93370400D01*
X150622000Y-96647000D02*
X152273000Y-94996000D01*
X149352000Y-96647000D02*
X150622000Y-96647000D01*
X155498800Y-100888800D02*
X155194000Y-100888800D01*
X152247600Y-100888800D02*
X155194000Y-100888800D01*
D14*
G36*
X160871227Y-93021393D02*
G01*
X160957044Y-93047303D01*
X161036206Y-93089394D01*
X161105676Y-93146053D01*
X161162824Y-93215133D01*
X161205463Y-93293992D01*
X161231973Y-93379632D01*
X161242801Y-93482656D01*
X161242800Y-100823264D01*
X161232607Y-100927224D01*
X161206696Y-101013046D01*
X161164607Y-101092202D01*
X161107946Y-101161677D01*
X161038867Y-101218824D01*
X160960007Y-101261464D01*
X160874368Y-101287973D01*
X160771354Y-101298800D01*
X145302736Y-101298800D01*
X145198776Y-101288607D01*
X145112954Y-101262696D01*
X145033798Y-101220607D01*
X144964323Y-101163946D01*
X144907176Y-101094867D01*
X144864536Y-101016007D01*
X144838027Y-100930368D01*
X144827200Y-100827354D01*
X144827200Y-99615001D01*
X155586351Y-99615001D01*
X155608095Y-99835775D01*
X155672493Y-100048064D01*
X155777068Y-100243711D01*
X155917803Y-100415198D01*
X156089290Y-100555933D01*
X156284937Y-100660508D01*
X156497226Y-100724906D01*
X156662675Y-100741201D01*
X156773325Y-100741201D01*
X156938774Y-100724906D01*
X157151063Y-100660508D01*
X157346710Y-100555933D01*
X157518197Y-100415198D01*
X157658932Y-100243711D01*
X157763507Y-100048064D01*
X157821700Y-99856227D01*
X158206721Y-99856227D01*
X158249872Y-99998490D01*
X158344058Y-100187797D01*
X158473366Y-100355092D01*
X158632827Y-100493946D01*
X158816313Y-100599023D01*
X159016773Y-100666284D01*
X159184200Y-100633927D01*
X159184200Y-99688801D01*
X159331800Y-99688801D01*
X159331800Y-100633927D01*
X159499227Y-100666284D01*
X159699687Y-100599023D01*
X159883173Y-100493946D01*
X160042634Y-100355092D01*
X160171942Y-100187797D01*
X160266128Y-99998490D01*
X160309279Y-99856227D01*
X160276780Y-99688801D01*
X159331800Y-99688801D01*
X159184200Y-99688801D01*
X158239220Y-99688801D01*
X158206721Y-99856227D01*
X157821700Y-99856227D01*
X157827905Y-99835775D01*
X157849649Y-99615001D01*
X157827905Y-99394227D01*
X157821701Y-99373775D01*
X158206721Y-99373775D01*
X158239220Y-99541201D01*
X159184200Y-99541201D01*
X159184200Y-98596075D01*
X159331800Y-98596075D01*
X159331800Y-99541201D01*
X160276780Y-99541201D01*
X160309279Y-99373775D01*
X160266128Y-99231512D01*
X160171942Y-99042205D01*
X160042634Y-98874910D01*
X159883173Y-98736056D01*
X159699687Y-98630979D01*
X159499227Y-98563718D01*
X159331800Y-98596075D01*
X159184200Y-98596075D01*
X159016773Y-98563718D01*
X158816313Y-98630979D01*
X158632827Y-98736056D01*
X158473366Y-98874910D01*
X158344058Y-99042205D01*
X158249872Y-99231512D01*
X158206721Y-99373775D01*
X157821701Y-99373775D01*
X157763507Y-99181938D01*
X157658932Y-98986291D01*
X157518197Y-98814804D01*
X157346710Y-98674069D01*
X157151063Y-98569494D01*
X156938774Y-98505096D01*
X156773325Y-98488801D01*
X156662675Y-98488801D01*
X156497226Y-98505096D01*
X156284937Y-98569494D01*
X156089290Y-98674069D01*
X155917803Y-98814804D01*
X155777068Y-98986291D01*
X155672493Y-99181938D01*
X155608095Y-99394227D01*
X155586351Y-99615001D01*
X144827200Y-99615001D01*
X144827200Y-97075001D01*
X155586351Y-97075001D01*
X155608095Y-97295775D01*
X155672493Y-97508064D01*
X155777068Y-97703711D01*
X155917803Y-97875198D01*
X156089290Y-98015933D01*
X156284937Y-98120508D01*
X156497226Y-98184906D01*
X156662675Y-98201201D01*
X156773325Y-98201201D01*
X156938774Y-98184906D01*
X157151063Y-98120508D01*
X157346710Y-98015933D01*
X157518197Y-97875198D01*
X157658932Y-97703711D01*
X157763507Y-97508064D01*
X157827905Y-97295775D01*
X157849649Y-97075001D01*
X158126351Y-97075001D01*
X158148095Y-97295775D01*
X158212493Y-97508064D01*
X158317068Y-97703711D01*
X158457803Y-97875198D01*
X158629290Y-98015933D01*
X158824937Y-98120508D01*
X159037226Y-98184906D01*
X159202675Y-98201201D01*
X159313325Y-98201201D01*
X159478774Y-98184906D01*
X159691063Y-98120508D01*
X159886710Y-98015933D01*
X160058197Y-97875198D01*
X160198932Y-97703711D01*
X160303507Y-97508064D01*
X160367905Y-97295775D01*
X160389649Y-97075001D01*
X160367905Y-96854227D01*
X160303507Y-96641938D01*
X160198932Y-96446291D01*
X160058197Y-96274804D01*
X159886710Y-96134069D01*
X159691063Y-96029494D01*
X159478774Y-95965096D01*
X159313325Y-95948801D01*
X159202675Y-95948801D01*
X159037226Y-95965096D01*
X158824937Y-96029494D01*
X158629290Y-96134069D01*
X158457803Y-96274804D01*
X158317068Y-96446291D01*
X158212493Y-96641938D01*
X158148095Y-96854227D01*
X158126351Y-97075001D01*
X157849649Y-97075001D01*
X157827905Y-96854227D01*
X157763507Y-96641938D01*
X157658932Y-96446291D01*
X157518197Y-96274804D01*
X157346710Y-96134069D01*
X157151063Y-96029494D01*
X156938774Y-95965096D01*
X156773325Y-95948801D01*
X156662675Y-95948801D01*
X156497226Y-95965096D01*
X156284937Y-96029494D01*
X156089290Y-96134069D01*
X155917803Y-96274804D01*
X155777068Y-96446291D01*
X155672493Y-96641938D01*
X155608095Y-96854227D01*
X155586351Y-97075001D01*
X144827200Y-97075001D01*
X144827200Y-93685001D01*
X155590464Y-93685001D01*
X155590464Y-95385001D01*
X155595797Y-95439146D01*
X155611590Y-95491209D01*
X155637237Y-95539192D01*
X155671752Y-95581249D01*
X155713809Y-95615764D01*
X155761792Y-95641411D01*
X155813855Y-95657204D01*
X155868000Y-95662537D01*
X157568000Y-95662537D01*
X157622145Y-95657204D01*
X157674208Y-95641411D01*
X157722191Y-95615764D01*
X157764248Y-95581249D01*
X157798763Y-95539192D01*
X157824410Y-95491209D01*
X157840203Y-95439146D01*
X157845536Y-95385001D01*
X157845536Y-94535001D01*
X158126351Y-94535001D01*
X158148095Y-94755775D01*
X158212493Y-94968064D01*
X158317068Y-95163711D01*
X158457803Y-95335198D01*
X158629290Y-95475933D01*
X158824937Y-95580508D01*
X159037226Y-95644906D01*
X159202675Y-95661201D01*
X159313325Y-95661201D01*
X159478774Y-95644906D01*
X159691063Y-95580508D01*
X159886710Y-95475933D01*
X160058197Y-95335198D01*
X160198932Y-95163711D01*
X160303507Y-94968064D01*
X160367905Y-94755775D01*
X160389649Y-94535001D01*
X160367905Y-94314227D01*
X160303507Y-94101938D01*
X160198932Y-93906291D01*
X160058197Y-93734804D01*
X159886710Y-93594069D01*
X159691063Y-93489494D01*
X159478774Y-93425096D01*
X159313325Y-93408801D01*
X159202675Y-93408801D01*
X159037226Y-93425096D01*
X158824937Y-93489494D01*
X158629290Y-93594069D01*
X158457803Y-93734804D01*
X158317068Y-93906291D01*
X158212493Y-94101938D01*
X158148095Y-94314227D01*
X158126351Y-94535001D01*
X157845536Y-94535001D01*
X157845536Y-93685001D01*
X157840203Y-93630856D01*
X157824410Y-93578793D01*
X157798763Y-93530810D01*
X157764248Y-93488753D01*
X157722191Y-93454238D01*
X157674208Y-93428591D01*
X157622145Y-93412798D01*
X157568000Y-93407465D01*
X155868000Y-93407465D01*
X155813855Y-93412798D01*
X155761792Y-93428591D01*
X155713809Y-93454238D01*
X155671752Y-93488753D01*
X155637237Y-93530810D01*
X155611590Y-93578793D01*
X155595797Y-93630856D01*
X155590464Y-93685001D01*
X144827200Y-93685001D01*
X144827200Y-93486736D01*
X144837393Y-93382773D01*
X144863303Y-93296956D01*
X144905394Y-93217794D01*
X144962053Y-93148324D01*
X145031133Y-93091176D01*
X145109992Y-93048537D01*
X145195632Y-93022027D01*
X145298646Y-93011200D01*
X160767264Y-93011200D01*
X160871227Y-93021393D01*
X160871227Y-93021393D01*
G37*
X160871227Y-93021393D02*
X160957044Y-93047303D01*
X161036206Y-93089394D01*
X161105676Y-93146053D01*
X161162824Y-93215133D01*
X161205463Y-93293992D01*
X161231973Y-93379632D01*
X161242801Y-93482656D01*
X161242800Y-100823264D01*
X161232607Y-100927224D01*
X161206696Y-101013046D01*
X161164607Y-101092202D01*
X161107946Y-101161677D01*
X161038867Y-101218824D01*
X160960007Y-101261464D01*
X160874368Y-101287973D01*
X160771354Y-101298800D01*
X145302736Y-101298800D01*
X145198776Y-101288607D01*
X145112954Y-101262696D01*
X145033798Y-101220607D01*
X144964323Y-101163946D01*
X144907176Y-101094867D01*
X144864536Y-101016007D01*
X144838027Y-100930368D01*
X144827200Y-100827354D01*
X144827200Y-99615001D01*
X155586351Y-99615001D01*
X155608095Y-99835775D01*
X155672493Y-100048064D01*
X155777068Y-100243711D01*
X155917803Y-100415198D01*
X156089290Y-100555933D01*
X156284937Y-100660508D01*
X156497226Y-100724906D01*
X156662675Y-100741201D01*
X156773325Y-100741201D01*
X156938774Y-100724906D01*
X157151063Y-100660508D01*
X157346710Y-100555933D01*
X157518197Y-100415198D01*
X157658932Y-100243711D01*
X157763507Y-100048064D01*
X157821700Y-99856227D01*
X158206721Y-99856227D01*
X158249872Y-99998490D01*
X158344058Y-100187797D01*
X158473366Y-100355092D01*
X158632827Y-100493946D01*
X158816313Y-100599023D01*
X159016773Y-100666284D01*
X159184200Y-100633927D01*
X159184200Y-99688801D01*
X159331800Y-99688801D01*
X159331800Y-100633927D01*
X159499227Y-100666284D01*
X159699687Y-100599023D01*
X159883173Y-100493946D01*
X160042634Y-100355092D01*
X160171942Y-100187797D01*
X160266128Y-99998490D01*
X160309279Y-99856227D01*
X160276780Y-99688801D01*
X159331800Y-99688801D01*
X159184200Y-99688801D01*
X158239220Y-99688801D01*
X158206721Y-99856227D01*
X157821700Y-99856227D01*
X157827905Y-99835775D01*
X157849649Y-99615001D01*
X157827905Y-99394227D01*
X157821701Y-99373775D01*
X158206721Y-99373775D01*
X158239220Y-99541201D01*
X159184200Y-99541201D01*
X159184200Y-98596075D01*
X159331800Y-98596075D01*
X159331800Y-99541201D01*
X160276780Y-99541201D01*
X160309279Y-99373775D01*
X160266128Y-99231512D01*
X160171942Y-99042205D01*
X160042634Y-98874910D01*
X159883173Y-98736056D01*
X159699687Y-98630979D01*
X159499227Y-98563718D01*
X159331800Y-98596075D01*
X159184200Y-98596075D01*
X159016773Y-98563718D01*
X158816313Y-98630979D01*
X158632827Y-98736056D01*
X158473366Y-98874910D01*
X158344058Y-99042205D01*
X158249872Y-99231512D01*
X158206721Y-99373775D01*
X157821701Y-99373775D01*
X157763507Y-99181938D01*
X157658932Y-98986291D01*
X157518197Y-98814804D01*
X157346710Y-98674069D01*
X157151063Y-98569494D01*
X156938774Y-98505096D01*
X156773325Y-98488801D01*
X156662675Y-98488801D01*
X156497226Y-98505096D01*
X156284937Y-98569494D01*
X156089290Y-98674069D01*
X155917803Y-98814804D01*
X155777068Y-98986291D01*
X155672493Y-99181938D01*
X155608095Y-99394227D01*
X155586351Y-99615001D01*
X144827200Y-99615001D01*
X144827200Y-97075001D01*
X155586351Y-97075001D01*
X155608095Y-97295775D01*
X155672493Y-97508064D01*
X155777068Y-97703711D01*
X155917803Y-97875198D01*
X156089290Y-98015933D01*
X156284937Y-98120508D01*
X156497226Y-98184906D01*
X156662675Y-98201201D01*
X156773325Y-98201201D01*
X156938774Y-98184906D01*
X157151063Y-98120508D01*
X157346710Y-98015933D01*
X157518197Y-97875198D01*
X157658932Y-97703711D01*
X157763507Y-97508064D01*
X157827905Y-97295775D01*
X157849649Y-97075001D01*
X158126351Y-97075001D01*
X158148095Y-97295775D01*
X158212493Y-97508064D01*
X158317068Y-97703711D01*
X158457803Y-97875198D01*
X158629290Y-98015933D01*
X158824937Y-98120508D01*
X159037226Y-98184906D01*
X159202675Y-98201201D01*
X159313325Y-98201201D01*
X159478774Y-98184906D01*
X159691063Y-98120508D01*
X159886710Y-98015933D01*
X160058197Y-97875198D01*
X160198932Y-97703711D01*
X160303507Y-97508064D01*
X160367905Y-97295775D01*
X160389649Y-97075001D01*
X160367905Y-96854227D01*
X160303507Y-96641938D01*
X160198932Y-96446291D01*
X160058197Y-96274804D01*
X159886710Y-96134069D01*
X159691063Y-96029494D01*
X159478774Y-95965096D01*
X159313325Y-95948801D01*
X159202675Y-95948801D01*
X159037226Y-95965096D01*
X158824937Y-96029494D01*
X158629290Y-96134069D01*
X158457803Y-96274804D01*
X158317068Y-96446291D01*
X158212493Y-96641938D01*
X158148095Y-96854227D01*
X158126351Y-97075001D01*
X157849649Y-97075001D01*
X157827905Y-96854227D01*
X157763507Y-96641938D01*
X157658932Y-96446291D01*
X157518197Y-96274804D01*
X157346710Y-96134069D01*
X157151063Y-96029494D01*
X156938774Y-95965096D01*
X156773325Y-95948801D01*
X156662675Y-95948801D01*
X156497226Y-95965096D01*
X156284937Y-96029494D01*
X156089290Y-96134069D01*
X155917803Y-96274804D01*
X155777068Y-96446291D01*
X155672493Y-96641938D01*
X155608095Y-96854227D01*
X155586351Y-97075001D01*
X144827200Y-97075001D01*
X144827200Y-93685001D01*
X155590464Y-93685001D01*
X155590464Y-95385001D01*
X155595797Y-95439146D01*
X155611590Y-95491209D01*
X155637237Y-95539192D01*
X155671752Y-95581249D01*
X155713809Y-95615764D01*
X155761792Y-95641411D01*
X155813855Y-95657204D01*
X155868000Y-95662537D01*
X157568000Y-95662537D01*
X157622145Y-95657204D01*
X157674208Y-95641411D01*
X157722191Y-95615764D01*
X157764248Y-95581249D01*
X157798763Y-95539192D01*
X157824410Y-95491209D01*
X157840203Y-95439146D01*
X157845536Y-95385001D01*
X157845536Y-94535001D01*
X158126351Y-94535001D01*
X158148095Y-94755775D01*
X158212493Y-94968064D01*
X158317068Y-95163711D01*
X158457803Y-95335198D01*
X158629290Y-95475933D01*
X158824937Y-95580508D01*
X159037226Y-95644906D01*
X159202675Y-95661201D01*
X159313325Y-95661201D01*
X159478774Y-95644906D01*
X159691063Y-95580508D01*
X159886710Y-95475933D01*
X160058197Y-95335198D01*
X160198932Y-95163711D01*
X160303507Y-94968064D01*
X160367905Y-94755775D01*
X160389649Y-94535001D01*
X160367905Y-94314227D01*
X160303507Y-94101938D01*
X160198932Y-93906291D01*
X160058197Y-93734804D01*
X159886710Y-93594069D01*
X159691063Y-93489494D01*
X159478774Y-93425096D01*
X159313325Y-93408801D01*
X159202675Y-93408801D01*
X159037226Y-93425096D01*
X158824937Y-93489494D01*
X158629290Y-93594069D01*
X158457803Y-93734804D01*
X158317068Y-93906291D01*
X158212493Y-94101938D01*
X158148095Y-94314227D01*
X158126351Y-94535001D01*
X157845536Y-94535001D01*
X157845536Y-93685001D01*
X157840203Y-93630856D01*
X157824410Y-93578793D01*
X157798763Y-93530810D01*
X157764248Y-93488753D01*
X157722191Y-93454238D01*
X157674208Y-93428591D01*
X157622145Y-93412798D01*
X157568000Y-93407465D01*
X155868000Y-93407465D01*
X155813855Y-93412798D01*
X155761792Y-93428591D01*
X155713809Y-93454238D01*
X155671752Y-93488753D01*
X155637237Y-93530810D01*
X155611590Y-93578793D01*
X155595797Y-93630856D01*
X155590464Y-93685001D01*
X144827200Y-93685001D01*
X144827200Y-93486736D01*
X144837393Y-93382773D01*
X144863303Y-93296956D01*
X144905394Y-93217794D01*
X144962053Y-93148324D01*
X145031133Y-93091176D01*
X145109992Y-93048537D01*
X145195632Y-93022027D01*
X145298646Y-93011200D01*
X160767264Y-93011200D01*
X160871227Y-93021393D01*
M02*
